<svg width="21" height="20" viewBox="0 0 21 20" fill="none" xmlns="http://www.w3.org/2000/svg">
<rect width="8.57143" height="8.57143" fill="#475562"/>
<rect x="11.4258" width="8.57143" height="8.57143" fill="#475562"/>
<mask id="path-3-outside-1_36_740" maskUnits="userSpaceOnUse" x="11" y="10.5" width="10" height="10" fill="black">
<rect fill="white" x="11" y="10.5" width="10" height="10"/>
<path d="M20.404 16.179H16.97V19.698H15.168V16.179H11.734V14.547H15.168V11.028H16.97V14.547H20.404V16.179Z"/>
</mask>
<path d="M20.404 16.179H16.97V19.698H15.168V16.179H11.734V14.547H15.168V11.028H16.97V14.547H20.404V16.179Z" fill="#383D44"/>
<path d="M20.404 16.179V16.429H20.654V16.179H20.404ZM16.97 16.179V15.929H16.72V16.179H16.97ZM16.97 19.698V19.948H17.22V19.698H16.97ZM15.168 19.698H14.918V19.948H15.168V19.698ZM15.168 16.179H15.418V15.929H15.168V16.179ZM11.734 16.179H11.484V16.429H11.734V16.179ZM11.734 14.547V14.297H11.484V14.547H11.734ZM15.168 14.547V14.797H15.418V14.547H15.168ZM15.168 11.028V10.778H14.918V11.028H15.168ZM16.97 11.028H17.22V10.778H16.97V11.028ZM16.97 14.547H16.72V14.797H16.97V14.547ZM20.404 14.547H20.654V14.297H20.404V14.547ZM20.404 15.929H16.97V16.429H20.404V15.929ZM16.72 16.179V19.698H17.22V16.179H16.72ZM16.97 19.448H15.168V19.948H16.97V19.448ZM15.418 19.698V16.179H14.918V19.698H15.418ZM15.168 15.929H11.734V16.429H15.168V15.929ZM11.984 16.179V14.547H11.484V16.179H11.984ZM11.734 14.797H15.168V14.297H11.734V14.797ZM15.418 14.547V11.028H14.918V14.547H15.418ZM15.168 11.278H16.97V10.778H15.168V11.278ZM16.72 11.028V14.547H17.22V11.028H16.72ZM16.97 14.797H20.404V14.297H16.97V14.797ZM20.154 14.547V16.179H20.654V14.547H20.154Z" fill="#383D44" mask="url(#path-3-outside-1_36_740)"/>
<rect y="11.4282" width="8.57143" height="8.57143" fill="#475562"/>
</svg>
