<svg width="50" height="50" viewBox="0 0 50 50" fill="none" xmlns="http://www.w3.org/2000/svg">
<circle cx="25" cy="25" r="25" fill="#E9F1FF"/>
<g clip-path="url(#clip0_36_691)">
<path d="M24.4419 37.001C22.2889 37.001 20.5356 35.2489 20.5356 33.0947C20.5356 32.6635 20.8856 32.3135 21.3169 32.3135C21.7481 32.3135 22.0981 32.6635 22.0981 33.0947C22.0981 34.3875 23.1502 35.4385 24.4419 35.4385C25.7336 35.4385 26.7856 34.3875 26.7856 33.0947C26.7856 32.6635 27.1356 32.3135 27.5669 32.3135C27.9981 32.3135 28.3481 32.6635 28.3481 33.0947C28.3481 35.2489 26.5951 37.001 24.4419 37.001Z" fill="#3871CD"/>
<path d="M33.0357 33.876H15.8482C14.8431 33.876 14.0254 33.0583 14.0254 32.0531C14.0254 31.5196 14.2577 31.0146 14.6628 30.6676C14.689 30.6447 14.717 30.6239 14.7462 30.6051C16.2753 29.2707 17.1504 27.3509 17.1504 25.3238V22.4176C17.1504 18.3969 20.4223 15.126 24.442 15.126C24.6087 15.126 24.7889 15.129 24.9556 15.1573C25.3816 15.228 25.6692 15.6312 25.5982 16.0562C25.5275 16.4811 25.117 16.7688 24.6993 16.6978C24.6159 16.6843 24.5244 16.6885 24.442 16.6885C21.2838 16.6885 18.7129 19.2582 18.7129 22.4176V25.3238C18.7129 27.8406 17.6097 30.2219 15.689 31.8561C15.6733 31.8687 15.6598 31.8801 15.643 31.8916C15.615 31.927 15.5879 31.9812 15.5879 32.0531C15.5879 32.1946 15.7067 32.3135 15.8482 32.3135H33.0357C33.1775 32.3135 33.2963 32.1946 33.2963 32.0531C33.2963 31.9801 33.2692 31.927 33.24 31.8916C33.2244 31.8801 33.2108 31.8687 33.1952 31.8561C31.2734 30.2207 30.1713 27.8406 30.1713 25.3238V24.1886C30.1713 23.7573 30.5213 23.4073 30.9525 23.4073C31.3838 23.4073 31.7338 23.7573 31.7338 24.1886V25.3238C31.7338 27.3521 32.6098 29.2728 34.1411 30.6083C34.1691 30.627 34.1962 30.6468 34.2212 30.6688C34.6265 31.0146 34.8588 31.5196 34.8588 32.0531C34.8588 33.0583 34.0411 33.876 33.0357 33.876Z" fill="#3871CD"/>
<path d="M31.7338 22.4176C28.8619 22.4176 26.5254 20.0813 26.5254 17.2094C26.5254 14.3375 28.8619 12.001 31.7338 12.001C34.6057 12.001 36.942 14.3375 36.942 17.2094C36.942 20.0813 34.6057 22.4176 31.7338 22.4176ZM31.7338 13.5635C29.7233 13.5635 28.0879 15.1988 28.0879 17.2094C28.0879 19.2197 29.7233 20.8551 31.7338 20.8551C33.7441 20.8551 35.3795 19.2197 35.3795 17.2094C35.3795 15.1988 33.7441 13.5635 31.7338 13.5635Z" fill="#3871CD"/>
</g>
<defs>
<clipPath id="clip0_36_691">
<rect width="25" height="25" fill="white" transform="translate(13 12.001)"/>
</clipPath>
</defs>
</svg>
